<svg xmlns="http://www.w3.org/2000/svg" version="1.0" preserveAspectRatio="xMidYMid meet" viewBox="35.1 0.1 259.9 203.68">
<g transform="translate(0.000000,217.000000) scale(0.100000,-0.100000)" fill="#000000" stroke="none">
<path d="M1670 2160 c-9 -6 -14 -21 -12 -44 4 -40 -11 -73 -45 -99 -12 -10 -23 -26 -23 -35 0 -9 -12 -26 -27 -38 -16 -12 -25 -25 -21 -29 4 -4 22 7 40 23 18 17 33 30 35 28 1 -1 -10 -33 -26 -72 -15 -38 -54 -150 -85 -249 -80 -248 -114 -349 -126 -375 -5 -11 -31 -17 -86 -22 -108 -9 -724 0 -804 12 -104 15 -161 -11 -131 -59 5 -8 16 -11 31 -6 16 5 29 0 50 -20 24 -23 38 -28 86 -29 37 -1 58 3 61 12 3 8 -7 12 -31 12 -34 0 -126 46 -126 62 0 13 18 9 34 -7 17 -17 46 -20 46 -5 0 6 12 10 26 10 14 0 23 -4 19 -10 -4 -6 36 -9 114 -7 112 3 121 2 121 -16 0 -10 -4 -16 -9 -13 -15 10 -41 -28 -31 -44 15 -24 11 -37 -5 -16 -11 14 -15 16 -15 5 0 -9 -3 -10 -8 -3 -4 6 -24 14 -44 18 -21 4 -38 13 -38 20 0 22 -28 14 -33 -10 -4 -25 -16 -19 183 -84 36 -11 97 -36 135 -55 97 -47 112 -50 126 -27 11 18 14 17 102 -5 50 -13 93 -26 96 -28 2 -3 -2 -17 -9 -32 -26 -57 -58 -163 -49 -163 5 0 9 -10 8 -22 0 -21 -1 -22 -8 -4 -7 18 -9 16 -21 -15 -19 -50 -38 -129 -31 -129 4 0 7 -8 8 -17 1 -10 4 -27 8 -39 4 -13 1 -27 -7 -35 -24 -25 -46 -64 -63 -115 -10 -27 -26 -71 -36 -99 -10 -27 -24 -51 -33 -53 -8 -2 -12 -10 -9 -18 3 -8 0 -14 -6 -14 -16 0 -14 21 5 41 8 9 17 23 18 31 2 7 8 26 15 42 6 15 14 64 16 108 4 59 13 95 34 141 30 65 46 115 56 182 3 21 11 43 18 47 6 4 8 8 2 8 -6 0 -6 3 0 8 6 4 18 19 28 35 20 31 5 37 -26 10 -19 -17 -20 -17 -8 5 6 12 8 22 4 22 -15 0 -42 -85 -52 -163 -10 -70 -18 -94 -50 -147 -13 -21 -25 -52 -26 -70 -3 -51 -33 -176 -58 -240 -35 -90 -37 -109 -15 -123 14 -9 23 -6 44 13 28 26 74 113 74 142 0 9 12 30 26 47 19 23 24 38 20 56 -5 21 2 33 39 70 50 51 51 52 30 75 -13 14 -12 26 9 105 13 50 39 128 59 175 19 47 37 92 40 101 5 14 13 14 74 -7 99 -33 187 -72 286 -128 90 -51 105 -66 63 -66 -13 0 -26 -6 -29 -12 -6 -19 11 -48 30 -48 12 0 13 3 4 14 -20 24 4 27 65 7 41 -14 69 -31 90 -55 17 -20 38 -36 47 -36 8 0 36 -9 62 -20 26 -11 65 -23 88 -26 54 -9 63 -16 93 -81 14 -29 29 -53 34 -53 17 0 16 25 -3 64 -40 83 -61 97 -157 110 -59 8 -221 136 -172 136 5 0 17 -9 28 -21 49 -54 175 -116 174 -85 -1 12 -191 169 -231 190 -13 7 -48 27 -77 44 -29 18 -55 32 -59 32 -3 0 -27 16 -53 35 -26 19 -52 35 -58 35 -5 0 -47 19 -93 42 -56 28 -98 42 -125 42 l-41 1 14 35 c46 110 54 120 92 120 20 0 54 5 76 10 22 5 92 12 154 15 63 4 118 7 122 8 4 1 8 -2 8 -8 1 -5 -12 -13 -29 -16 -45 -10 -54 -22 -33 -47 17 -19 21 -20 68 -7 28 8 64 14 81 15 l30 0 38 -187 c33 -168 41 -195 78 -258 22 -38 46 -80 52 -92 13 -27 32 -31 21 -5 -4 9 -10 26 -13 37 -5 20 -5 20 16 1 12 -11 22 -26 23 -35 0 -9 3 -11 5 -5 3 6 -16 46 -41 88 -25 43 -52 104 -59 136 -8 32 -24 71 -36 87 -12 17 -24 46 -26 64 -8 65 -23 134 -37 174 l-14 40 -52 -3 c-43 -2 -50 0 -44 14 5 13 16 15 55 12 44 -5 61 3 38 17 -5 3 -6 12 -3 21 5 13 9 11 29 -7 13 -12 24 -19 24 -15 0 5 6 4 13 -2 10 -8 62 -10 62 -2 0 1 18 4 40 5 22 1 49 5 61 8 14 5 26 2 33 -7 11 -13 6 -15 -29 -14 -23 0 -46 -5 -50 -12 -4 -6 -10 -11 -14 -11 -3 1 -7 1 -8 0 -2 0 -16 -2 -33 -2 -16 -1 -36 -6 -42 -10 -7 -5 -17 -6 -22 -3 -18 11 -22 -65 -6 -119 11 -40 19 -53 30 -49 8 4 15 2 15 -4 0 -6 -6 -12 -12 -14 -9 -3 -9 -11 3 -29 9 -13 22 -49 29 -79 13 -54 139 -327 140 -302 0 6 4 12 10 12 5 0 7 -7 4 -15 -4 -8 -1 -15 5 -15 6 0 11 -5 11 -11 0 -7 -10 -9 -25 -7 -13 3 -22 1 -19 -3 3 -5 12 -9 19 -9 18 0 49 -57 36 -65 -10 -6 14 -92 31 -110 6 -7 14 -4 22 8 7 9 21 17 30 17 19 0 21 23 3 39 -16 12 -87 145 -87 161 0 5 -14 38 -31 72 -37 77 -96 215 -119 283 -56 165 -72 216 -69 219 2 2 67 9 144 16 162 14 387 6 453 -17 40 -13 45 -13 57 4 11 15 26 17 111 15 54 -2 101 -5 105 -8 16 -9 69 19 69 37 0 23 -34 42 -60 34 -14 -4 -20 -2 -20 8 0 25 -41 45 -75 35 -16 -5 -151 -9 -300 -9 -148 0 -328 -3 -399 -7 -83 -5 -130 -3 -131 3 -19 67 -67 225 -115 375 -57 179 -66 208 -75 247 -3 10 -9 38 -15 61 -6 24 -8 58 -5 76 5 24 2 36 -14 50 -17 15 -19 22 -9 34 10 11 8 17 -7 28 -22 16 -34 17 -55 4z m52 -116 c-6 -10 -7 -27 -2 -40 7 -18 6 -21 -10 -17 -11 3 -33 -5 -50 -17 l-31 -22 15 36 c17 42 46 85 46 71 0 -6 5 -2 11 8 7 13 14 16 21 9 7 -7 7 -16 0 -28z m-17 -91 c13 -60 55 -201 80 -268 15 -38 39 -117 55 -175 16 -58 36 -123 44 -145 33 -87 42 -82 -186 -87 -123 -3 -214 -10 -232 -17 -16 -6 -31 -10 -33 -7 -3 2 18 52 46 110 77 157 126 300 152 436 12 64 51 180 60 180 5 0 11 -12 14 -27z m628 -693 c15 0 18 -3 10 -8 -7 -4 -29 -6 -49 -4 -25 3 -32 7 -23 13 8 5 20 7 27 4 8 -3 23 -5 35 -5z m267 -4 c8 -2 29 0 46 4 18 4 38 4 45 -1 7 -4 18 -5 23 -1 6 3 34 7 63 7 43 1 57 -3 75 -22 12 -13 20 -23 17 -24 -7 -1 -63 -2 -103 0 -33 1 -37 3 -26 16 10 13 9 15 -9 15 -11 0 -21 -6 -21 -13 0 -13 -25 -20 -72 -19 -101 1 -158 5 -158 11 0 3 -25 6 -57 6 -38 0 -57 4 -59 13 -1 7 0 8 2 3 3 -6 14 -7 28 -1 13 5 49 6 80 4 32 -2 56 0 56 5 0 5 12 7 28 4 15 -3 34 -6 42 -7z m-1157 -28 c-2 -5 -9 -8 -15 -8 -7 0 -21 -8 -32 -18 -17 -14 -32 -16 -76 -11 -30 3 -43 6 -28 7 15 1 41 10 58 20 29 18 103 25 93 10z m-309 -21 c3 4 6 1 6 -5 0 -7 8 -12 18 -12 14 0 15 2 2 10 -12 7 -11 9 6 8 11 -1 21 -8 21 -15 0 -22 -86 -14 -98 9 -8 16 -7 17 15 8 13 -5 27 -6 30 -3z m-77 -50 c13 -9 90 -5 213 13 36 5 68 10 72 10 5 0 -4 -22 -20 -49 -17 -31 -36 -52 -50 -56 -23 -6 -23 -7 -8 -30 22 -34 8 -37 -55 -15 -29 11 -64 20 -76 20 -12 0 -25 5 -28 10 -3 6 -23 10 -43 10 -45 0 -295 73 -299 87 -2 5 9 8 24 6 16 -2 69 0 118 5 93 9 131 6 152 -11z m-39 -117 c6 0 12 -6 12 -14 0 -16 -47 -19 -57 -3 -4 6 -1 7 8 3 8 -4 5 0 -6 10 -20 16 -20 16 5 10 14 -3 31 -6 38 -6z m319 -10 c14 -11 34 -20 44 -20 11 0 19 -5 19 -11 0 -5 4 -8 9 -5 5 3 31 -6 57 -21 27 -15 55 -28 62 -29 19 -3 104 -46 124 -63 25 -22 85 -57 136 -81 23 -10 42 -23 42 -29 0 -5 11 -12 25 -15 22 -6 24 -9 15 -26 -8 -14 -19 -19 -40 -17 -31 4 -63 25 -55 36 2 4 -14 15 -35 25 -22 10 -40 22 -40 27 0 5 -6 9 -14 9 -8 0 -21 6 -28 13 -7 7 -43 28 -80 47 -38 19 -68 41 -68 49 0 8 -6 11 -16 7 -8 -3 -13 -2 -10 3 7 10 -40 24 -53 16 -5 -2 -34 0 -65 7 -43 8 -60 8 -69 -1 -6 -6 -15 -11 -19 -11 -11 0 1 51 17 70 7 8 10 21 8 28 -7 17 5 15 34 -8z"/>
</g>
</svg>