<svg xmlns="http://www.w3.org/2000/svg" version="1.0" preserveAspectRatio="xMidYMid meet"
    viewBox="79.83 262.19 624.03 183.17">
    <g transform="translate(0.000000,585.000000) scale(0.100000,-0.100000)" fill="#000000" stroke="none">
        <path
            d="M1565 3214 c-148 -32 -248 -72 -357 -140 -52 -33 -239 -218 -259 -256 -90 -173 -97 -189 -134 -334 -40 -160 -6 -410 80 -579 80 -157 217 -308 340 -375 22 -11 47 -25 55 -30 46 -27 136 -61 215 -80 119 -29 339 -32 430 -5 123 36 227 79 290 120 78 51 234 210 258 263 4 9 16 31 27 47 49 77 70 130 101 255 23 94 24 149 1 222 -20 64 -54 108 -121 156 -39 29 -51 32 -114 32 -86 0 -153 -32 -204 -99 -18 -25 -50 -54 -70 -66 -67 -41 -100 -194 -50 -236 12 -10 25 -18 30 -19 12 0 8 21 -8 36 -19 19 -19 61 0 94 8 14 14 34 15 46 0 12 12 30 27 40 15 10 54 45 86 77 52 51 62 57 100 57 50 0 116 -35 134 -70 13 -26 10 -63 -12 -142 -18 -62 -31 -86 -69 -126 -40 -43 -80 -65 -134 -71 -60 -8 -57 -25 5 -29 123 -7 251 112 254 236 0 20 4 46 9 57 8 20 8 20 16 0 5 -11 9 -60 8 -110 -1 -80 -4 -98 -34 -160 -83 -174 -174 -265 -347 -346 -83 -39 -128 -49 -257 -56 -172 -9 -298 29 -436 130 -84 62 -151 138 -197 226 -7 13 -22 40 -32 60 -70 132 -81 185 -61 284 27 131 74 177 195 192 54 6 58 8 40 21 -10 8 -27 14 -37 14 -27 0 -22 28 12 61 32 33 50 83 50 142 0 21 5 47 10 58 18 32 83 59 144 59 75 0 203 29 246 56 44 27 62 48 90 102 26 50 44 53 70 10 27 -44 25 -102 -4 -152 -14 -24 -26 -67 -30 -104 -9 -82 -17 -97 -87 -159 -52 -47 -64 -53 -102 -53 -23 0 -53 7 -65 16 -13 9 -26 13 -29 10 -10 -9 37 -49 80 -68 35 -16 42 -17 71 -3 17 8 55 37 83 63 28 26 57 52 66 59 9 7 17 39 21 85 5 52 14 84 31 110 36 55 47 116 33 180 -6 29 -17 60 -25 69 -7 8 -13 20 -13 24 0 15 -61 63 -110 87 -58 29 -220 35 -325 12z" />
        <path
            d="M5730 2860 c-13 -8 -15 -73 -15 -488 0 -505 1 -512 45 -512 40 0 48 28 55 200 8 215 17 258 58 297 49 46 91 59 136 43 42 -14 88 -54 104 -90 6 -14 14 -112 17 -223 5 -182 7 -200 24 -213 26 -19 39 -18 67 5 23 18 24 25 27 173 7 273 -30 372 -163 441 -45 23 -159 28 -207 9 -47 -19 -55 3 -60 175 -3 130 -7 155 -23 173 -20 22 -41 25 -65 10z" />
        <path
            d="M2825 2510 c-19 -21 -20 -38 -20 -322 0 -285 1 -300 19 -314 28 -20 43 -18 71 11 25 24 25 25 25 229 l0 204 27 33 c53 63 131 69 184 13 32 -34 39 -83 39 -280 0 -176 1 -181 23 -202 28 -27 49 -28 69 -4 13 14 17 58 20 230 l5 213 33 34 c66 68 114 68 180 0 l33 -34 5 -198 c5 -220 14 -263 55 -263 18 0 29 9 41 34 24 51 24 444 -1 484 -29 47 -77 93 -118 114 -58 30 -160 29 -211 -3 -22 -13 -40 -27 -42 -31 -5 -11 -50 -10 -56 1 -4 5 -25 18 -49 30 -33 16 -67 21 -157 24 -63 2 -124 7 -135 11 -15 5 -26 1 -40 -14z" />
        <path
            d="M3864 2509 c-18 -20 -19 -40 -18 -308 0 -310 5 -341 48 -341 49 0 56 28 56 222 0 232 11 269 94 314 24 13 35 14 65 4 46 -15 75 -39 86 -70 4 -14 10 -118 14 -231 6 -219 11 -239 56 -239 50 0 56 22 67 262 l10 223 27 22 c62 52 99 52 166 -2 l30 -25 7 -222 c7 -211 9 -224 29 -240 31 -26 56 -22 74 12 12 23 15 67 15 209 0 265 -12 306 -114 376 -51 35 -61 38 -123 38 -65 0 -142 -26 -159 -54 -10 -17 -43 -9 -86 20 -53 35 -105 44 -187 30 -51 -8 -68 -7 -93 6 -40 19 -41 19 -64 -6z" />
        <path
            d="M5095 2510 c-69 -8 -123 -39 -182 -103 -84 -92 -114 -211 -77 -309 34 -94 76 -148 149 -197 38 -25 46 -26 170 -26 108 0 134 3 155 18 33 23 49 22 81 -9 26 -24 31 -26 58 -15 29 13 29 13 36 118 11 149 1 473 -14 501 -17 31 -59 29 -87 -5 l-21 -27 -64 26 c-72 29 -130 38 -204 28z m109 -112 c52 -15 108 -58 138 -106 33 -53 32 -163 -1 -212 -68 -99 -181 -137 -269 -90 -51 27 -64 38 -100 89 -27 38 -32 53 -32 103 0 73 25 125 81 170 37 30 92 54 128 57 7 1 32 -4 55 -11z" />
        <path
            d="M6640 2510 c-64 -14 -112 -41 -165 -94 -71 -71 -97 -130 -98 -226 -1 -66 3 -82 31 -135 53 -99 122 -162 197 -180 17 -4 70 -7 118 -6 71 0 97 4 133 23 31 15 49 19 58 13 67 -50 66 -49 94 -32 l27 16 3 287 c2 245 0 291 -13 311 -17 25 -68 32 -82 11 -23 -36 -38 -38 -89 -14 -54 25 -158 38 -214 26z m114 -112 c52 -15 111 -60 142 -109 19 -30 24 -52 24 -100 0 -91 -47 -163 -129 -200 -90 -39 -181 -13 -254 73 -39 46 -40 51 -41 121 0 59 4 79 23 110 28 45 81 88 130 103 48 16 57 16 105 2z" />
        <path d="M1720 2043 c-36 -7 -55 -24 -38 -34 15 -10 289 -10 333 0 l30 7 -25 14 c-25 14 -247 24 -300 13z" />
        <path
            d="M2456 1674 c-13 -12 -16 -38 -16 -119 0 -63 4 -106 11 -110 16 -10 21 -1 27 50 3 32 11 49 24 56 20 11 20 11 -1 33 -29 31 -27 54 7 62 47 10 52 13 52 29 0 21 -83 21 -104 -1z" />
        <path
            d="M2777 1672 c-14 -15 -17 -40 -17 -120 0 -61 4 -102 10 -102 6 0 10 9 10 20 0 30 22 70 38 70 18 0 56 -40 77 -81 16 -29 45 -40 45 -16 0 7 -14 32 -31 56 l-32 42 18 38 c20 46 11 72 -35 96 -38 20 -63 19 -83 -3z m93 -47 c-1 -36 -43 -45 -63 -13 -17 27 7 49 38 34 14 -6 25 -15 25 -21z" />
        <path
            d="M3131 1673 c-21 -17 -22 -25 -19 -133 l3 -115 60 3 c79 4 90 18 24 29 -46 7 -55 12 -57 31 -5 32 25 62 59 62 15 0 31 5 35 11 8 14 -14 29 -43 29 -27 0 -58 29 -45 42 5 5 28 12 51 15 31 4 41 10 39 22 -5 24 -78 27 -107 4z" />
        <path
            d="M3471 1673 c-20 -17 -22 -26 -19 -128 l3 -110 49 -3 c71 -5 92 8 36 22 -34 8 -46 16 -48 33 -5 36 15 63 48 63 16 0 31 4 35 9 7 12 -26 31 -55 31 -17 0 -21 5 -18 28 2 22 9 28 38 32 23 3 36 11 38 23 3 14 -4 17 -41 17 -28 0 -53 -7 -66 -17z" />
        <path
            d="M4033 1683 c-37 -5 -44 -27 -13 -43 18 -10 20 -21 20 -104 0 -97 4 -113 27 -95 9 8 13 37 13 94 0 69 3 85 20 100 23 21 26 45 6 45 -8 0 -20 2 -28 3 -7 2 -28 2 -45 0z" />
        <path
            d="M4724 1680 c-29 -11 -37 -59 -28 -165 l7 -85 58 0 c73 0 86 17 19 26 -48 6 -50 8 -50 38 0 41 16 56 58 56 26 0 33 4 30 18 -2 11 -14 18 -35 20 -33 3 -59 25 -49 41 3 5 24 12 46 16 22 4 43 11 46 17 15 24 -56 37 -102 18z" />
        <path
            d="M6325 1680 c-4 -6 -9 -60 -12 -120 -7 -139 -4 -144 85 -134 85 9 122 44 122 118 0 73 -33 112 -110 133 -56 15 -77 16 -85 3z m134 -67 c29 -36 36 -68 21 -104 -16 -37 -37 -49 -89 -49 l-41 0 0 90 0 90 44 0 c36 0 48 -5 65 -27z" />
        <path
            d="M4309 1643 c-11 -28 -6 -183 6 -203 12 -20 25 1 25 40 0 49 21 70 70 70 48 0 65 -17 74 -69 12 -79 26 -43 26 69 0 61 -3 110 -7 110 -5 0 -15 -15 -24 -33 -21 -43 -54 -54 -102 -34 -29 12 -37 22 -37 41 0 36 -18 42 -31 9z" />
        <path
            d="M5244 1657 c-2 -7 -3 -60 -2 -118 3 -120 21 -142 26 -31 2 62 5 72 21 72 10 0 26 -9 36 -20 21 -24 48 -26 65 -5 7 8 20 15 30 15 13 0 19 -14 26 -67 14 -104 29 -78 29 50 0 106 -1 112 -21 115 -15 2 -29 -9 -49 -38 -32 -45 -56 -51 -78 -16 -35 53 -72 72 -83 43z" />
        <path
            d="M5914 1657 c-3 -8 -3 -56 -2 -108 2 -76 6 -94 18 -94 10 0 16 12 18 40 4 62 11 85 27 85 8 0 15 -7 15 -16 0 -22 88 -134 106 -134 23 0 34 44 34 134 0 87 -5 103 -27 85 -8 -7 -13 -33 -13 -70 0 -50 -3 -59 -17 -59 -10 0 -34 23 -53 51 -61 87 -71 99 -86 99 -8 0 -17 -6 -20 -13z" />
        <path d="M5690 1550 c0 -67 4 -110 10 -110 6 0 10 43 10 110 0 67 -4 110 -10 110 -6 0 -10 -43 -10 -110z" />
    </g>
</svg>