<svg xmlns="http://www.w3.org/2000/svg" version="1.0" preserveAspectRatio="xMidYMid meet" viewBox="193.59 142.17 511.41 299.93">
<metadata>
Created by potrace 1.10, written by Peter Selinger 2001-2011
</metadata>
<g transform="translate(0.000000,585.000000) scale(0.100000,-0.100000)" fill="#000000" stroke="none">
<path d="M4490 4363 c0 -37 7 -95 14 -128 16 -67 14 -75 -18 -75 -32 0 -139 -35 -173 -57 -36 -22 -93 -84 -93 -100 0 -16 36 -53 50 -53 6 0 13 -7 16 -15 4 -8 15 -15 25 -15 11 0 22 -7 25 -15 4 -8 14 -15 24 -15 10 0 25 -6 33 -14 7 -8 24 -16 37 -18 13 -1 25 -9 28 -15 6 -19 -47 -16 -54 2 -4 8 -17 15 -30 15 -14 0 -27 7 -30 15 -4 8 -15 15 -25 15 -11 0 -22 7 -25 15 -4 8 -10 15 -15 15 -5 0 -28 14 -51 30 l-43 30 -311 1 c-367 1 -435 -10 -389 -61 20 -22 160 -91 275 -135 25 -9 60 -23 78 -31 18 -8 39 -14 46 -14 36 0 42 -53 8 -65 -29 -9 -92 -70 -92 -88 0 -37 31 -28 105 32 42 34 82 62 88 62 26 3 53 -2 87 -15 33 -13 102 -34 200 -61 25 -7 68 -20 96 -29 29 -9 60 -16 69 -16 16 0 17 -7 10 -67 -13 -126 -12 -138 10 -138 17 0 23 13 40 87 22 99 28 102 110 74 38 -13 83 -24 260 -61 44 -10 87 -21 95 -25 8 -4 29 -47 45 -95 31 -90 54 -120 76 -98 9 9 8 23 -6 60 -9 26 -18 64 -19 83 l-1 35 50 -3 c28 -1 91 -9 140 -18 118 -20 248 -16 253 8 4 19 -164 149 -238 184 -8 4 -46 26 -85 49 -38 22 -91 51 -117 64 -27 12 -50 26 -52 30 -3 4 -23 13 -44 20 l-40 14 5 56 c6 68 -17 125 -77 193 -22 25 -40 49 -40 52 0 4 36 54 80 113 44 58 80 110 80 115 0 21 -30 4 -55 -32 -15 -22 -32 -40 -36 -40 -5 0 -9 -7 -9 -15 0 -8 -4 -15 -8 -15 -4 0 -16 -14 -27 -32 -10 -18 -29 -42 -42 -54 l-24 -22 -47 23 c-26 13 -77 31 -113 41 l-66 16 -17 97 c-9 53 -17 111 -19 130 -1 19 -8 36 -14 39 -10 3 -13 -14 -13 -65z m-368 -419 c17 -11 -26 -55 -77 -79 -83 -39 -155 -30 -155 19 0 50 74 79 174 70 28 -3 53 -7 58 -10z m412 -120 c24 -9 19 -24 -8 -24 -31 0 -56 10 -56 21 0 10 40 12 64 3z m-146 -26 c20 -20 14 -52 -16 -87 -23 -28 -35 -34 -70 -35 -45 -1 -62 12 -62 50 0 51 113 107 148 72z m276 -4 c29 -11 17 -24 -23 -24 -44 0 -71 8 -71 21 0 10 70 12 94 3z m241 -34 c4 -6 -27 -10 -84 -10 -54 0 -91 4 -91 10 0 6 35 10 84 10 47 0 88 -4 91 -10z m-166 -69 c12 -16 24 -49 27 -73 5 -36 2 -46 -15 -62 -19 -17 -24 -18 -46 -6 -55 29 -74 95 -41 144 22 34 50 33 75 -3z m330 -32 c56 -29 83 -62 79 -95 -2 -19 -10 -30 -22 -32 -52 -10 -200 114 -174 146 14 17 64 9 117 -19z"/>
<path d="M5738 2869 c-17 -9 -18 -44 -18 -494 0 -469 1 -485 19 -495 11 -5 28 -10 39 -10 42 0 47 23 52 239 5 200 6 207 30 239 28 39 87 72 125 72 42 0 103 -38 130 -80 25 -39 25 -44 25 -239 0 -168 2 -202 16 -215 21 -22 60 -20 84 4 19 19 20 33 20 204 0 144 -4 195 -17 237 -29 95 -96 160 -189 187 -54 16 -88 15 -148 -3 -81 -25 -76 -35 -76 155 0 157 -2 172 -20 190 -22 22 -46 25 -72 9z"/>
<path d="M2830 2520 c-19 -19 -20 -33 -20 -319 0 -259 2 -302 16 -315 21 -22 60 -20 84 4 19 19 20 33 20 233 l0 214 35 36 c43 44 85 55 134 32 73 -33 76 -44 79 -285 3 -179 6 -218 19 -232 18 -20 45 -23 74 -8 18 10 19 23 19 222 0 195 2 213 21 244 24 39 76 74 111 74 36 0 90 -40 110 -80 15 -30 18 -65 18 -237 0 -217 4 -233 53 -233 52 1 52 2 52 258 l0 240 -38 54 c-37 54 -56 68 -127 95 -69 25 -146 11 -213 -40 l-36 -28 -40 29 c-50 37 -119 56 -168 48 -117 -18 -119 -18 -132 -2 -18 22 -47 20 -71 -4z"/>
<path d="M3865 2516 c-14 -21 -15 -65 -13 -325 3 -324 3 -320 55 -321 48 0 53 18 53 210 0 229 9 272 62 311 48 34 75 36 126 10 68 -35 72 -52 72 -295 0 -203 1 -216 19 -226 27 -14 54 -13 77 4 18 13 19 31 24 242 l5 228 43 33 c26 19 55 33 72 33 17 0 46 -14 72 -33 l43 -33 5 -228 c5 -211 6 -229 24 -242 26 -18 61 -18 80 2 14 13 16 49 16 233 0 253 -7 283 -85 347 -96 81 -197 84 -304 10 l-41 -29 -26 26 c-29 29 -102 57 -148 57 -17 0 -53 -7 -80 -15 -47 -14 -51 -14 -71 5 -29 27 -61 25 -80 -4z"/>
<path d="M2174 2516 c-56 -15 -137 -69 -171 -114 -57 -75 -68 -108 -67 -206 0 -79 4 -98 26 -141 36 -68 73 -107 138 -146 53 -32 59 -33 160 -34 107 0 136 8 192 54 16 12 19 11 28 -15 6 -16 17 -32 23 -36 22 -14 57 -8 77 12 19 19 20 33 20 308 l0 289 -23 21 c-13 12 -30 22 -38 22 -19 -1 -55 -31 -62 -53 -6 -16 -9 -16 -44 4 -83 47 -172 59 -259 35z m158 -112 c87 -34 148 -118 148 -203 0 -122 -99 -221 -221 -221 -91 0 -184 75 -208 169 -25 99 29 203 131 250 54 24 96 26 150 5z"/>
<path d="M5075 2516 c-59 -17 -96 -39 -144 -87 -88 -88 -119 -199 -87 -314 20 -71 39 -104 88 -151 81 -77 110 -88 228 -88 96 -1 110 2 158 27 53 28 72 28 72 2 0 -36 71 -46 94 -13 14 19 16 65 16 304 0 269 -1 282 -21 308 -11 14 -28 26 -37 26 -24 -1 -52 -24 -52 -43 0 -25 -12 -26 -55 -5 -95 47 -177 58 -260 34z m159 -113 c70 -26 120 -79 140 -152 16 -57 16 -62 -3 -118 -68 -197 -323 -205 -410 -13 -25 56 -26 81 -4 144 22 59 73 112 133 137 57 23 83 23 144 2z"/>
<path d="M6635 2519 c-91 -30 -170 -92 -208 -164 -25 -46 -47 -122 -47 -159 0 -79 73 -219 138 -262 82 -55 93 -59 202 -59 97 0 109 2 151 28 56 33 65 34 73 3 11 -45 88 -47 100 -4 3 13 6 150 6 306 0 269 -1 283 -20 302 -11 11 -26 20 -33 20 -20 0 -57 -30 -57 -46 0 -19 -29 -18 -65 4 -62 38 -174 52 -240 31z m160 -120 c105 -46 161 -152 135 -251 -55 -202 -314 -228 -409 -41 -55 109 2 246 122 295 56 23 95 22 152 -3z"/>
<path d="M2460 1690 c-12 -7 -15 -33 -15 -126 0 -64 3 -121 7 -127 13 -22 27 7 30 63 3 48 6 55 26 58 14 2 22 10 22 23 0 13 -6 19 -16 17 -23 -4 -42 28 -28 49 7 11 25 17 60 17 36 1 49 5 49 16 0 11 -14 16 -60 18 -33 1 -67 -2 -75 -8z"/>
<path d="M2788 1689 c-16 -9 -18 -26 -18 -129 0 -100 3 -120 15 -120 12 0 15 13 15 55 0 75 21 84 67 29 18 -21 33 -42 33 -46 0 -12 38 -48 50 -48 17 0 11 21 -18 59 -51 64 -53 72 -26 104 27 32 22 51 -22 86 -29 23 -68 27 -96 10z m80 -38 c29 -25 28 -39 -2 -47 -54 -13 -84 16 -51 50 20 20 25 20 53 -3z"/>
<path d="M3143 1690 c-22 -9 -23 -14 -23 -135 l0 -126 83 3 c97 4 106 21 15 28 -63 5 -63 5 -66 38 -4 44 12 62 58 62 41 0 51 6 43 26 -3 8 -19 14 -38 14 -42 0 -65 9 -65 25 0 23 30 38 78 39 35 1 47 5 47 16 0 18 -96 25 -132 10z"/>
<path d="M3477 1688 c-16 -12 -17 -28 -15 -133 l3 -120 78 -3 c61 -2 78 0 75 10 -3 8 -26 14 -59 16 -59 4 -69 12 -64 54 5 42 13 48 56 48 33 0 40 3 37 18 -2 11 -14 18 -33 19 -17 0 -36 2 -42 2 -7 1 -13 12 -13 25 0 32 15 40 70 41 33 0 45 4 45 15 0 20 -112 27 -138 8z"/>
<path d="M3993 1688 c-7 -13 7 -28 27 -28 25 0 30 -19 30 -126 0 -87 1 -94 20 -94 19 0 20 7 20 98 0 104 4 118 35 123 11 3 20 11 20 19 0 12 -15 15 -73 15 -41 0 -76 -3 -79 -7z"/>
<path d="M4733 1693 c-30 -6 -34 -28 -31 -153 l3 -105 83 -3 c65 -2 83 0 80 10 -3 8 -29 15 -69 18 l-64 5 -3 33 c-5 46 12 62 64 62 37 0 44 3 44 20 0 17 -7 20 -44 20 -89 0 -79 55 12 62 53 5 71 12 59 25 -9 8 -104 13 -134 6z"/>
<path d="M6333 1693 c-10 -3 -13 -40 -13 -134 l0 -129 69 0 c64 0 71 2 105 33 34 31 36 37 36 93 -1 46 -6 65 -23 85 -33 40 -132 69 -174 52z m109 -45 c40 -23 57 -52 58 -94 0 -32 -6 -46 -29 -68 -24 -23 -36 -27 -72 -24 l-44 3 -3 84 c-2 46 -1 90 2 98 7 16 59 17 88 1z"/>
<path d="M4315 1668 c-3 -12 -5 -70 -3 -128 2 -85 6 -105 18 -105 11 0 16 14 18 57 3 66 12 72 93 66 l44 -3 3 -62 c2 -47 7 -63 17 -63 12 0 15 23 15 130 0 109 -2 130 -15 130 -11 0 -15 -11 -15 -39 0 -45 -13 -57 -60 -56 -60 2 -80 13 -80 44 0 16 -7 34 -15 41 -12 10 -15 8 -20 -12z"/>
<path d="M5257 1683 c-4 -3 -7 -60 -7 -125 0 -108 2 -119 17 -116 15 3 17 14 14 81 -3 73 -2 77 18 77 13 0 26 -10 32 -23 6 -13 19 -28 29 -35 15 -9 22 -5 46 29 15 22 31 36 35 32 5 -5 9 -44 11 -88 2 -63 6 -80 18 -80 12 0 15 19 16 110 1 120 -2 145 -17 145 -13 0 -28 -15 -59 -62 -14 -21 -31 -38 -37 -38 -7 0 -29 23 -50 50 -36 48 -52 58 -66 43z"/>
<path d="M5690 1560 c0 -109 2 -130 15 -130 13 0 15 21 15 130 0 109 -2 130 -15 130 -13 0 -15 -21 -15 -130z"/>
<path d="M5925 1668 c-3 -13 -5 -70 -3 -128 2 -85 6 -105 18 -105 12 0 16 17 18 83 2 60 6 82 16 82 8 0 16 -8 20 -17 5 -18 26 -53 36 -63 3 -3 18 -24 34 -48 21 -31 35 -42 50 -40 20 3 21 10 24 108 2 58 0 116 -3 130 -7 25 -7 25 -22 5 -11 -15 -14 -37 -10 -87 7 -113 -2 -109 -103 36 -48 70 -66 80 -75 44z"/>
</g>
</svg>