<svg xmlns="http://www.w3.org/2000/svg" version="1.0" preserveAspectRatio="xMidYMid meet" viewBox="91.6 75.43 627.01 633.21">
<metadata>
Created by potrace 1.10, written by Peter Selinger 2001-2011
</metadata>
<g transform="translate(0.000000,840.000000) scale(0.100000,-0.100000)" fill="#000000" stroke="none">
<path d="M3955 7643 c-27 -2 -96 -10 -153 -18 -56 -8 -121 -15 -143 -15 -54 0 -267 -41 -399 -77 -92 -25 -243 -72 -285 -89 -22 -9 -58 -23 -80 -31 -144 -55 -403 -188 -550 -283 -72 -46 -212 -147 -253 -181 -26 -22 -72 -61 -102 -87 -69 -58 -245 -235 -320 -323 -105 -122 -226 -289 -315 -434 -43 -70 -147 -273 -179 -350 -7 -16 -18 -41 -24 -55 -34 -77 -87 -230 -125 -360 -35 -121 -69 -289 -93 -460 -24 -175 -24 -604 0 -780 59 -426 178 -787 376 -1145 180 -326 471 -673 745 -890 28 -22 60 -49 73 -61 24 -23 320 -222 364 -245 62 -32 305 -153 323 -160 251 -104 461 -165 740 -214 50 -9 110 -23 135 -30 31 -10 112 -16 265 -18 140 -3 231 -9 250 -16 38 -15 109 -8 275 29 69 16 150 33 180 40 30 6 84 18 120 26 36 7 75 11 86 8 13 -3 49 5 85 21 35 14 100 39 144 55 44 16 103 38 130 50 28 12 79 31 115 42 36 11 129 47 208 80 125 53 142 63 142 83 0 18 14 32 59 59 32 20 61 36 64 36 3 0 48 25 100 55 66 39 115 78 168 132 41 43 87 85 104 93 16 8 58 51 93 95 144 180 264 314 285 317 25 4 67 64 134 193 53 103 136 238 169 275 40 44 160 341 204 505 10 39 26 95 35 125 42 141 54 210 60 360 3 85 10 188 16 228 11 77 6 114 -33 267 -45 173 -203 429 -302 489 -17 10 -59 40 -93 67 -33 26 -105 69 -158 95 -83 41 -104 47 -153 46 -31 -1 -79 5 -106 14 -37 13 -54 14 -72 5 -14 -6 -53 -11 -87 -11 -104 0 -229 -48 -272 -104 -15 -19 -56 -54 -91 -76 -36 -23 -83 -57 -104 -76 -54 -49 -110 -136 -110 -171 0 -37 -19 -55 -149 -132 -120 -72 -215 -142 -237 -176 -13 -20 -13 -30 -3 -63 10 -35 9 -45 -9 -78 -57 -111 -82 -210 -82 -326 l0 -100 63 -62 c45 -46 87 -75 157 -109 52 -26 100 -47 107 -47 6 0 24 -8 41 -17 16 -9 36 -14 47 -10 15 6 12 11 -19 32 -20 14 -39 25 -41 25 -2 0 -25 15 -53 33 -58 38 -105 79 -149 130 -31 35 -33 43 -33 110 0 85 24 169 76 267 35 65 36 69 20 91 -9 13 -16 31 -16 40 0 29 153 149 270 212 82 44 96 58 130 122 77 145 176 219 317 234 134 15 259 -27 424 -142 79 -55 88 -77 96 -227 9 -170 -44 -407 -127 -572 -43 -83 -51 -97 -99 -163 -161 -220 -342 -314 -602 -315 -110 0 -166 9 -247 41 -13 5 -28 9 -34 9 -12 0 33 -50 46 -50 5 0 17 -6 25 -13 23 -19 103 -44 201 -63 89 -18 263 -15 325 5 130 41 168 56 225 88 155 86 313 295 386 510 43 126 56 206 56 356 0 81 3 149 7 151 4 3 32 -52 62 -122 l54 -127 -3 -180 c-4 -193 -15 -257 -71 -430 -36 -110 -48 -140 -118 -285 -246 -509 -680 -914 -1218 -1135 -77 -32 -93 -38 -145 -54 -138 -45 -220 -65 -400 -98 -136 -25 -572 -25 -715 0 -157 28 -250 50 -390 93 -64 20 -238 90 -285 115 -8 4 -51 26 -95 49 -269 138 -554 378 -727 610 -39 52 -76 100 -82 105 -7 6 -18 24 -25 41 -6 17 -31 56 -54 87 -37 50 -72 111 -91 157 -3 8 -26 51 -51 95 -25 44 -53 96 -61 115 -14 31 -72 155 -180 388 l-34 73 0 169 c0 210 20 347 77 520 38 114 126 250 200 307 117 92 324 148 579 159 85 4 154 9 154 11 0 9 -45 42 -57 43 -7 0 -27 6 -45 14 -68 29 -146 46 -245 52 -57 4 -103 9 -103 11 0 12 22 43 31 43 15 0 118 81 160 127 129 138 182 297 177 533 -3 126 -1 137 20 172 65 105 225 169 472 188 680 52 917 136 1092 386 19 27 37 56 41 64 4 8 15 27 25 41 74 112 104 170 98 193 -12 47 43 59 89 18 29 -25 77 -91 96 -132 52 -112 54 -121 53 -250 0 -114 -3 -130 -28 -185 -31 -68 -64 -120 -118 -186 l-38 -47 0 -97 c0 -107 -19 -250 -52 -393 -23 -101 -37 -119 -89 -108 -43 8 -53 1 -103 -72 -60 -88 -117 -148 -191 -203 -153 -114 -183 -118 -355 -46 -63 26 -111 52 -259 142 -9 6 -31 21 -49 34 -64 45 -44 11 39 -71 193 -189 343 -283 472 -295 61 -5 70 -3 136 30 39 20 91 51 117 69 70 50 199 176 246 241 40 56 43 57 89 57 47 0 48 1 67 44 37 83 66 260 79 476 l6 114 42 46 c67 73 100 121 134 193 28 60 32 83 40 196 6 96 5 144 -5 192 -8 35 -14 81 -14 103 0 38 -61 180 -101 238 -11 14 -19 35 -19 46 0 12 -12 32 -27 46 -16 13 -62 55 -103 93 -41 38 -100 84 -130 102 -30 19 -64 42 -75 51 -25 22 -166 70 -203 70 -16 0 -51 7 -78 15 -47 15 -342 26 -479 18z"/>
<path d="M4495 6400 c-10 -15 26 -69 61 -91 33 -20 99 -25 124 -9 11 7 8 11 -15 19 -17 6 -38 16 -47 21 -10 6 -23 10 -29 10 -6 0 -28 14 -49 30 -23 18 -41 26 -45 20z"/>
<path d="M5727 4544 c-3 -3 4 -21 15 -41 21 -35 61 -58 85 -49 18 7 16 24 -4 30 -10 3 -32 19 -50 36 -34 32 -36 33 -46 24z"/>
<path d="M4860 3634 c-72 -23 -149 -66 -196 -107 -85 -74 -163 -206 -179 -299 -9 -54 14 -49 45 9 28 53 125 155 191 200 121 83 286 139 452 152 42 3 77 11 76 16 -3 39 -294 61 -389 29z"/>
</g>
</svg>