<svg xmlns="http://www.w3.org/2000/svg" version="1.0" preserveAspectRatio="xMidYMid meet"
    viewBox="91.6 75.53 627.39 630.44">
    <g transform="translate(0.000000,840.000000) scale(0.100000,-0.100000)" fill="#000000" stroke="none">
        <path
            d="M3930 7640 c-273 -22 -593 -78 -765 -134 -22 -8 -65 -21 -95 -31 -30 -9 -73 -23 -95 -32 -22 -8 -58 -22 -80 -30 -151 -57 -380 -175 -550 -283 -290 -184 -580 -455 -806 -755 -331 -437 -529 -928 -605 -1500 -24 -178 -24 -611 0 -775 25 -175 60 -347 92 -455 35 -121 95 -296 123 -360 8 -16 19 -43 27 -60 149 -347 382 -685 669 -969 61 -61 142 -136 180 -166 37 -30 82 -67 99 -82 16 -15 49 -40 73 -55 24 -15 43 -31 43 -35 0 -4 4 -8 9 -8 4 0 48 -26 97 -59 112 -74 149 -94 309 -174 378 -188 643 -261 1185 -327 111 -13 458 -13 574 1 116 13 323 48 356 59 14 5 66 19 115 30 50 12 122 32 160 46 132 47 180 65 198 75 9 5 65 25 125 45 102 34 149 55 272 121 158 85 302 188 435 312 28 25 70 62 95 82 67 54 171 157 216 214 21 28 45 56 52 64 8 8 25 33 39 55 15 23 50 66 79 96 55 57 94 104 94 113 0 3 18 33 41 67 23 34 53 84 68 111 47 89 95 164 110 173 9 6 33 55 95 199 26 58 65 170 76 216 5 18 13 38 19 44 6 6 11 26 11 45 0 19 6 46 14 60 19 37 61 202 72 282 39 279 43 391 19 510 -35 166 -47 216 -60 245 -39 86 -52 113 -70 140 -21 32 -26 38 -104 130 -28 33 -51 63 -51 68 0 4 -10 12 -22 17 -13 5 -50 30 -83 55 -153 115 -211 144 -327 163 -125 22 -184 19 -309 -12 -104 -25 -221 -78 -319 -142 -25 -16 -51 -31 -58 -34 -21 -9 -142 -133 -142 -146 0 -6 -7 -17 -15 -24 -8 -7 -15 -29 -15 -49 0 -41 -18 -61 -80 -95 -19 -11 -54 -32 -78 -48 -24 -15 -45 -28 -48 -28 -7 0 -155 -111 -176 -132 -16 -16 -18 -28 -12 -81 5 -51 3 -65 -10 -76 -9 -7 -16 -24 -16 -36 0 -12 -7 -28 -15 -35 -8 -7 -15 -23 -15 -37 0 -13 -7 -37 -15 -53 -10 -20 -15 -63 -16 -144 -1 -115 0 -116 30 -155 30 -37 80 -80 111 -94 8 -4 33 -18 55 -32 22 -13 47 -24 56 -25 9 0 22 -7 29 -15 7 -8 22 -15 34 -15 12 0 31 -7 42 -15 20 -15 74 -21 74 -7 0 11 -56 52 -71 52 -6 0 -28 14 -49 30 -21 17 -42 30 -47 30 -5 0 -39 32 -76 71 l-67 71 0 76 c1 48 6 87 15 102 8 14 14 34 15 44 0 19 37 105 49 116 3 3 14 22 23 42 15 32 15 38 2 48 -17 15 -18 51 -1 71 6 9 32 31 57 50 25 18 48 37 51 42 6 9 38 29 69 43 8 4 17 11 20 14 5 7 14 12 102 57 32 17 49 35 66 70 37 76 47 91 84 131 50 53 77 74 128 101 40 21 57 24 165 23 l120 -1 105 -52 c144 -71 212 -121 228 -167 32 -90 24 -289 -19 -457 -6 -22 -14 -57 -18 -78 -5 -21 -14 -44 -20 -50 -6 -6 -11 -19 -11 -28 0 -10 -7 -30 -14 -46 -8 -15 -18 -35 -21 -43 -3 -8 -14 -28 -25 -45 -11 -16 -25 -41 -30 -55 -6 -13 -14 -27 -18 -30 -4 -3 -20 -25 -36 -50 -30 -46 -171 -190 -186 -190 -5 0 -29 -13 -53 -30 -25 -16 -51 -30 -59 -30 -8 0 -23 -7 -34 -15 -10 -8 -31 -15 -45 -15 -15 0 -43 -7 -62 -15 -49 -20 -256 -20 -312 0 -22 8 -49 15 -59 15 -11 0 -28 8 -38 17 -14 12 -21 14 -30 5 -9 -9 -7 -16 7 -32 10 -11 24 -20 30 -20 7 0 18 -7 25 -15 7 -8 22 -15 34 -15 12 0 31 -7 42 -15 10 -8 31 -15 45 -15 15 0 43 -7 62 -15 50 -21 311 -21 347 0 14 8 39 15 55 15 17 0 39 7 49 15 11 8 30 15 42 15 13 0 26 4 29 10 3 5 22 17 42 27 79 37 244 193 274 258 5 11 18 34 28 50 46 72 105 213 121 290 5 22 13 52 18 66 6 14 13 92 17 173 6 110 12 151 23 162 22 22 32 7 59 -93 37 -139 44 -213 34 -378 -9 -140 -18 -195 -43 -270 -5 -16 -13 -43 -18 -60 -16 -57 -31 -98 -75 -200 -24 -56 -116 -240 -136 -270 -10 -16 -22 -37 -26 -45 -3 -8 -19 -31 -35 -51 -15 -20 -28 -40 -28 -43 0 -4 -35 -52 -77 -107 -43 -55 -95 -122 -116 -150 -82 -106 -210 -219 -335 -294 -9 -6 -53 -35 -97 -65 -102 -70 -134 -88 -275 -155 -63 -31 -128 -62 -143 -70 -16 -8 -34 -15 -42 -15 -7 0 -37 -11 -66 -24 -75 -33 -259 -81 -434 -113 -83 -15 -148 -18 -375 -17 -166 1 -295 6 -325 13 -27 6 -77 15 -110 20 -93 13 -253 58 -419 118 -73 26 -207 89 -283 133 -10 6 -25 13 -33 17 -8 4 -33 18 -55 32 -22 14 -48 30 -57 36 -53 32 -143 97 -213 154 -133 108 -355 339 -355 370 0 6 -4 11 -9 11 -9 0 -111 147 -111 160 0 5 -11 21 -25 36 -29 31 -33 39 -94 160 -24 49 -50 96 -56 104 -16 20 -58 100 -91 175 -14 33 -47 103 -71 155 -25 52 -54 115 -65 140 -11 25 -27 58 -35 74 -13 24 -16 64 -15 225 1 108 6 219 12 246 6 28 15 73 20 101 4 28 13 61 19 72 6 11 11 28 11 37 0 9 7 33 16 53 35 81 47 108 55 122 5 8 13 25 19 38 5 12 42 55 82 95 99 98 192 142 378 180 93 19 303 37 350 29 34 -5 34 -5 19 18 -14 22 -45 36 -144 66 -56 18 -218 35 -251 27 -12 -2 -25 1 -29 7 -7 12 21 50 38 50 15 0 87 60 149 123 128 131 182 280 184 507 1 195 -2 181 57 244 28 31 59 56 68 56 8 0 20 5 27 12 15 15 77 38 127 47 23 4 46 10 52 14 7 4 72 12 145 17 395 29 654 73 798 137 158 71 233 134 320 267 22 34 44 66 50 73 5 7 10 15 10 18 0 3 21 38 47 78 36 54 47 81 46 107 -1 26 4 39 18 49 18 10 26 8 57 -15 20 -16 43 -36 50 -46 7 -9 18 -23 25 -30 13 -13 39 -65 73 -148 25 -60 27 -279 3 -325 -9 -16 -24 -48 -35 -70 -10 -22 -45 -75 -76 -117 l-58 -77 0 -103 c-1 -57 -7 -132 -15 -168 -8 -36 -14 -84 -15 -106 0 -23 -7 -58 -15 -77 -8 -20 -15 -49 -15 -64 0 -16 -7 -39 -16 -51 -12 -18 -25 -22 -70 -22 -43 0 -56 -4 -61 -17 -9 -26 -121 -174 -152 -202 -91 -82 -208 -153 -254 -153 -29 -1 -122 19 -144 30 -10 6 -52 26 -93 46 -41 21 -87 45 -101 54 -15 9 -50 31 -78 47 -28 17 -51 33 -51 38 0 4 -6 7 -14 7 -8 0 -16 7 -20 15 -7 19 -26 20 -26 1 0 -37 322 -316 364 -316 8 0 18 -4 21 -10 3 -5 27 -19 53 -31 60 -28 209 -33 238 -9 11 9 37 25 59 35 22 11 45 25 50 32 6 6 25 20 43 31 50 29 163 142 218 216 l49 66 53 0 c44 0 52 3 52 19 0 10 7 24 15 31 8 7 15 23 15 37 0 13 7 40 15 60 8 19 15 59 15 87 0 28 7 82 15 121 8 38 15 116 15 172 l0 103 52 57 c28 32 55 60 59 63 6 4 19 26 58 100 36 66 42 94 50 220 5 74 7 138 4 143 -2 4 -11 53 -19 109 -11 83 -22 117 -55 183 -23 44 -50 92 -60 107 -10 14 -19 34 -19 45 0 30 -270 263 -306 263 -4 0 -15 7 -25 16 -25 23 -143 65 -209 74 -30 4 -68 13 -85 20 -33 13 -361 20 -485 10z" />
        <path
            d="M4500 6380 c0 -10 17 -35 37 -55 34 -33 41 -36 90 -33 29 2 53 7 54 12 0 8 -18 17 -101 50 -8 3 -30 15 -47 26 -32 19 -33 19 -33 0z" />
        <path
            d="M5725 4548 c-10 -25 34 -88 61 -89 13 -1 29 -2 36 -3 22 -2 19 24 -4 33 -13 5 -38 23 -55 41 -25 25 -34 29 -38 18z" />
        <path
            d="M4085 3575 c-27 -7 -83 -14 -123 -14 -71 -1 -132 -20 -132 -41 0 -17 63 -50 95 -50 17 0 55 -7 85 -16 78 -21 843 -21 969 1 46 8 109 15 140 15 57 0 141 27 141 45 0 18 -96 45 -161 45 -35 1 -100 7 -144 15 -107 20 -794 19 -870 0z" />
    </g>
</svg>